<?xml version="1.0" encoding="UTF-8" standalone="no"?>
<!-- Created with Inkscape (http://www.inkscape.org/) -->

<svg
   version="1.1"
   id="svg2"
   width="257.33334"
   height="257.33334"
   viewBox="0 0 257.33334 257.33334"
   sodipodi:docname="Pink_Floyd.eps"
   xmlns:inkscape="http://www.inkscape.org/namespaces/inkscape"
   xmlns:sodipodi="http://sodipodi.sourceforge.net/DTD/sodipodi-0.dtd"
   xmlns="http://www.w3.org/2000/svg"
   xmlns:svg="http://www.w3.org/2000/svg">
  <defs
     id="defs6" />
  <sodipodi:namedview
     id="namedview4"
     pagecolor="#00000"
     bordercolor="#000000"
     borderopacity="0.25"
     inkscape:showpageshadow="2"
     inkscape:pageopacity="0.0"
     inkscape:pagecheckerboard="0"
     inkscape:deskcolor="#d1d1d1" />
  <g
     id="g8"
     inkscape:groupmode="layer"
     inkscape:label="ink_ext_XXXXXX"
     transform="matrix(1.3333333,0,0,-1.3333333,0,257.33333)">
    <g
       id="g10"
       transform="scale(0.1)">
      <path
         d="M 0,1927.56 H 1927.56 V 0 H 0 v 1927.56"
         style="fill:#ffffff;fill-opacity:1;fill-rule:evenodd;stroke:none"
         id="path12" />
      <path
         d="M 1842.52,85.1602 H 85.2852 V 1842.4 H 1842.52 V 85.1602"
         style="fill:#231f20;fill-opacity:1;fill-rule:evenodd;stroke:none"
         id="path14" />
      <path
         d="M 1842.28,942.695 H 85.0391 l 0.4922,40.207 1756.7487,-3.187 v -37.02"
         style="fill:#f2e414;fill-opacity:1;fill-rule:evenodd;stroke:none"
         id="path16" />
      <path
         d="m 1842.28,979.715 -1757.2409,0.855 0.2461,34.69 1757.2348,1.23 -0.24,-36.775"
         style="fill:#eb661e;fill-opacity:1;fill-rule:evenodd;stroke:none"
         id="path18" />
      <path
         d="M 1842.52,1016.49 85.2852,1015.75 v 36.77 l 1756.9948,-0.24 0.24,-35.79"
         style="fill:#e61e2a;fill-opacity:1;fill-rule:evenodd;stroke:none"
         id="path20" />
      <path
         d="M 1842.28,870.133 85.5313,870.375 85.2852,906.66 1842.28,908.867 v -38.734"
         style="fill:#34ade3;fill-opacity:1;fill-rule:evenodd;stroke:none"
         id="path22" />
      <path
         d="M 1842.28,832.375 86.0195,831.641 85.5313,870.375 1842.28,870.133 v -37.758"
         style="fill:#3b398d;fill-opacity:1;fill-rule:evenodd;stroke:none"
         id="path24" />
      <path
         d="m 85.2852,943.922 c 11.7265,0.004 23.4418,0.012 35.1638,0.016 29.766,0.015 59.524,0.023 89.285,0.039 39.719,0.019 79.438,0.035 119.168,0.054 41.602,0.016 83.207,0.035 124.813,0.055 35.41,0.019 70.816,0.035 106.23,0.047 14.067,0.008 28.141,0.019 42.215,0.023 11.633,0.004 24.695,-1.703 35.477,3.555 8.871,4.328 16.968,10.199 25.586,14.988 25.871,14.383 60.246,8.367 86.496,-1.426 11.691,-4.359 17.789,-8.222 27.871,-14.164 6.578,-3.879 18.613,-8.992 23.043,-15.199 4.906,-6.863 5.168,-15.238 8.336,-21.574 l 11.765,-37.258 146.11,509.422 6.617,5.88 8.094,2.94 5.883,-4.41 2.941,-4.41 -20.59,-600.133 c 12.203,35.086 24.406,70.168 36.601,105.246 4.67,13.426 7.9,27.508 18.22,37.825 5.67,5.675 10.15,11.695 18.29,13.722 9.8,2.434 20.32,3.25 30.3,4.844 8.46,1.351 16.93,2.711 25.39,4.066 9.88,1.575 14.09,4.004 20.5,11.692 5.97,7.164 11.94,14.328 17.9,21.492 8.06,9.66 19.74,18.816 30.25,25.566 4.73,3.04 9.38,2.75 15.19,3.33 5.82,0.58 12.23,2.05 18.03,1.38 8.27,-0.97 16.85,-4.22 24.94,-6.24 6.08,-1.52 8.92,-2.08 13.55,-6.067 6.2,-5.301 13.38,-10.102 18.02,-16.797 4.83,-6.977 8.04,-15.403 14.61,-21.039 5.46,-4.696 12.63,-7.774 18.87,-11.336 6.1,-0.676 12.22,-1.356 18.34,-2.039 10.08,-1.125 18.26,1.125 28.1,3.09 5.74,1.152 10.2,2.222 15.5,4.578 15.18,6.754 26.56,10.922 43.42,11.633 8.41,0.355 16.74,-3.301 24.07,-7.036 4.05,-2.07 17.19,-13.324 21.51,-13.351 l 401.01,-0.371 -0.12,-37.688 -400.52,-0.551 c -15.24,7.618 -30.87,15.86 -48.05,18.125 -3.92,0.52 -8.14,0.079 -12.08,0.079 -15.87,0 -26.97,-12.719 -43.01,-17.653 -7.97,-2.457 -19.11,-2.457 -28.57,-2.457 -6.03,0 -13.47,1.176 -19.39,2.457 -5.59,1.211 -12.2,5.406 -17.5,7.906 -7.11,3.352 -14.14,7.141 -19.83,12.668 -13.04,12.661 -20.13,30.848 -37.8,38.426 -6.01,2.571 -10.83,5.653 -17.26,5.285 -7.5,-0.433 -14.22,-2.019 -22.56,-3.976 -11.02,-16.215 -21.04,-31.735 -35.54,-45.199 -14.59,-13.547 -38.04,-12.922 -56.63,-15.11 h -22.56 L 955.078,615.672 937.43,562.719 l -5.887,-3.926 -1.469,20.59 22.063,611.897 -127.231,-450.835 -5.148,-5.148 -6.621,6.621 c -7.774,32.086 -15.551,64.184 -23.328,96.277 -3.508,14.485 -7.02,28.985 -10.532,43.473 -1.906,7.875 -2.332,16.523 -6.218,23.785 -4.657,8.692 -13.289,9.899 -21.582,13.731 -8.653,4.007 -17.426,7.742 -26.383,11 -5.223,1.898 -10.645,4.8 -16.145,4.941 -7.176,0.18 -17.148,-0.785 -24.086,-2.676 -8.16,-2.226 -16.367,-8.015 -23.965,-11.816 -12.136,-6.938 -24.105,-14.711 -38.136,-14.711 -8.34,0 -16.672,0 -25.012,0 -29.051,0 -58.105,0 -87.164,0 -39.059,0 -78.113,0 -117.176,0 -41.246,0 -82.492,0 -123.742,0 -35.625,0 -71.25,0 -106.875,0 -22.188,0 -44.379,0 -66.5703,0 -3.6446,0 -7.293,0 -10.9375,0 v 38"
         style="fill:#41ab41;fill-opacity:1;fill-rule:evenodd;stroke:none"
         id="path26" />
    </g>
  </g>
</svg>
