{
  "accessors": [
    {
      "bufferView": 2,
      "componentType": 5126,
      "count": 64,
      "max": [
        1.1586923599243164,
        0.18572717905044556,
        1.1670509576797485
      ],
      "min": [
        -0.991421639919281,
        0.0,
        -1.046235203742981
      ],
      "type": "VEC3"
    },
    {
      "bufferView": 2,
      "byteOffset": 768,
      "componentType": 5126,
      "count": 64,
      "max": [
        0.8812910914421082,
        0.8145018815994263,
        0.7454337477684021
      ],
      "min": [
        -0.8812909722328186,
        -0.814501941204071,
        -0.7454336285591125
      ],
      "type": "VEC3"
    },
    {
      "bufferView": 1,
      "componentType": 5126,
      "count": 64,
      "max": [
        0.0,
        0.0
      ],
      "min": [
        0.0,
        0.0
      ],
      "type": "VEC2"
    },
    {
      "bufferView": 0,
      "componentType": 5125,
      "count": 192,
      "type": "SCALAR"
    },
    {
      "bufferView": 2,
      "byteOffset": 1536,
      "componentType": 5126,
      "count": 64,
      "max": [
        0.9649962782859802,
        0.18572717905044556,
        1.3599941730499268
      ],
      "min": [
        -1.079672932624817,
        0.0,
        -0.896968424320221
      ],
      "type": "VEC3"
    },
    {
      "bufferView": 2,
      "byteOffset": 2304,
      "componentType": 5126,
      "count": 64,
      "max": [
        0.9894275069236755,
        0.814501941204071,
        0.596063494682312
      ],
      "min": [
        -0.9894276261329651,
        -0.8145020008087158,
        -0.5960636138916016
      ],
      "type": "VEC3"
    },
    {
      "bufferView": 1,
      "byteOffset": 512,
      "componentType": 5126,
      "count": 64,
      "max": [
        0.0,
        0.0
      ],
      "min": [
        0.0,
        0.0
      ],
      "type": "VEC2"
    },
    {
      "bufferView": 0,
      "byteOffset": 768,
      "componentType": 5125,
      "count": 192,
      "type": "SCALAR"
    },
    {
      "bufferView": 2,
      "byteOffset": 3072,
      "componentType": 5126,
      "count": 64,
      "max": [
        0.9497091770172119,
        0.18572717905044556,
        1.014680027961731
      ],
      "min": [
        -1.3072534799575806,
        0.0,
        -1.029989242553711
      ],
      "type": "VEC3"
    },
    {
      "bufferView": 2,
      "byteOffset": 3840,
      "componentType": 5126,
      "count": 64,
      "max": [
        0.5960636138916016,
        0.8145020604133606,
        0.9894275665283203
      ],
      "min": [
        -0.5960637331008911,
        -0.814501941204071,
        -0.9894275665283203
      ],
      "type": "VEC3"
    },
    {
      "bufferView": 1,
      "byteOffset": 1024,
      "componentType": 5126,
      "count": 64,
      "max": [
        0.0,
        0.0
      ],
      "min": [
        0.0,
        0.0
      ],
      "type": "VEC2"
    },
    {
      "bufferView": 0,
      "byteOffset": 1536,
      "componentType": 5125,
      "count": 192,
      "type": "SCALAR"
    },
    {
      "bufferView": 2,
      "byteOffset": 4608,
      "componentType": 5126,
      "count": 64,
      "max": [
        1.0315860509872437,
        0.18572717905044556,
        1.1817001104354858
      ],
      "min": [
        -1.1817001104354858,
        7.450580596923828e-09,
        -0.9684139490127563
      ],
      "type": "VEC3"
    },
    {
      "bufferView": 2,
      "byteOffset": 5376,
      "componentType": 5126,
      "count": 64,
      "max": [
        0.745433509349823,
        0.8145020008087158,
        0.8812912106513977
      ],
      "min": [
        -0.7454336881637573,
        -0.814501941204071,
        -0.8812912702560425
      ],
      "type": "VEC3"
    },
    {
      "bufferView": 1,
      "byteOffset": 1536,
      "componentType": 5126,
      "count": 64,
      "max": [
        0.0,
        0.0
      ],
      "min": [
        0.0,
        0.0
      ],
      "type": "VEC2"
    },
    {
      "bufferView": 0,
      "byteOffset": 2304,
      "componentType": 5125,
      "count": 192,
      "type": "SCALAR"
    },
    {
      "bufferView": 2,
      "byteOffset": 6144,
      "componentType": 5126,
      "count": 64,
      "max": [
        1.1586923599243164,
        0.18572717905044556,
        1.1670509576797485
      ],
      "min": [
        -0.991421639919281,
        0.0,
        -1.046235203742981
      ],
      "type": "VEC3"
    },
    {
      "bufferView": 2,
      "byteOffset": 6912,
      "componentType": 5126,
      "count": 64,
      "max": [
        0.8812910914421082,
        0.8145018815994263,
        0.7454337477684021
      ],
      "min": [
        -0.8812909722328186,
        -0.814501941204071,
        -0.7454336285591125
      ],
      "type": "VEC3"
    },
    {
      "bufferView": 1,
      "byteOffset": 2048,
      "componentType": 5126,
      "count": 64,
      "max": [
        0.0,
        0.0
      ],
      "min": [
        0.0,
        0.0
      ],
      "type": "VEC2"
    },
    {
      "bufferView": 0,
      "byteOffset": 3072,
      "componentType": 5125,
      "count": 192,
      "type": "SCALAR"
    },
    {
      "bufferView": 2,
      "byteOffset": 7680,
      "componentType": 5126,
      "count": 64,
      "max": [
        0.9649962782859802,
        0.18572717905044556,
        1.3599941730499268
      ],
      "min": [
        -1.079672932624817,
        0.0,
        -0.896968424320221
      ],
      "type": "VEC3"
    },
    {
      "bufferView": 2,
      "byteOffset": 8448,
      "componentType": 5126,
      "count": 64,
      "max": [
        0.9894275069236755,
        0.814501941204071,
        0.596063494682312
      ],
      "min": [
        -0.9894276261329651,
        -0.8145020008087158,
        -0.5960636138916016
      ],
      "type": "VEC3"
    },
    {
      "bufferView": 1,
      "byteOffset": 2560,
      "componentType": 5126,
      "count": 64,
      "max": [
        0.0,
        0.0
      ],
      "min": [
        0.0,
        0.0
      ],
      "type": "VEC2"
    },
    {
      "bufferView": 0,
      "byteOffset": 3840,
      "componentType": 5125,
      "count": 192,
      "type": "SCALAR"
    },
    {
      "bufferView": 2,
      "byteOffset": 9216,
      "componentType": 5126,
      "count": 64,
      "max": [
        0.9497091770172119,
        0.18572717905044556,
        1.014680027961731
      ],
      "min": [
        -1.3072534799575806,
        0.0,
        -1.029989242553711
      ],
      "type": "VEC3"
    },
    {
      "bufferView": 2,
      "byteOffset": 9984,
      "componentType": 5126,
      "count": 64,
      "max": [
        0.5960636138916016,
        0.8145020604133606,
        0.9894275665283203
      ],
      "min": [
        -0.5960637331008911,
        -0.814501941204071,
        -0.9894275665283203
      ],
      "type": "VEC3"
    },
    {
      "bufferView": 1,
      "byteOffset": 3072,
      "componentType": 5126,
      "count": 64,
      "max": [
        0.0,
        0.0
      ],
      "min": [
        0.0,
        0.0
      ],
      "type": "VEC2"
    },
    {
      "bufferView": 0,
      "byteOffset": 4608,
      "componentType": 5125,
      "count": 192,
      "type": "SCALAR"
    },
    {
      "bufferView": 2,
      "byteOffset": 10752,
      "componentType": 5126,
      "count": 64,
      "max": [
        1.0315860509872437,
        0.18572717905044556,
        1.1817001104354858
      ],
      "min": [
        -1.1817001104354858,
        7.450580596923828e-09,
        -0.9684139490127563
      ],
      "type": "VEC3"
    },
    {
      "bufferView": 2,
      "byteOffset": 11520,
      "componentType": 5126,
      "count": 64,
      "max": [
        0.745433509349823,
        0.8145020008087158,
        0.8812912106513977
      ],
      "min": [
        -0.7454336881637573,
        -0.814501941204071,
        -0.8812912702560425
      ],
      "type": "VEC3"
    },
    {
      "bufferView": 1,
      "byteOffset": 3584,
      "componentType": 5126,
      "count": 64,
      "max": [
        0.0,
        0.0
      ],
      "min": [
        0.0,
        0.0
      ],
      "type": "VEC2"
    },
    {
      "bufferView": 0,
      "byteOffset": 5376,
      "componentType": 5125,
      "count": 192,
      "type": "SCALAR"
    },
    {
      "bufferView": 3,
      "componentType": 5126,
      "count": 100,
      "max": [
        4.166666507720947
      ],
      "min": [
        0.0416666679084301
      ],
      "type": "SCALAR"
    },
    {
      "bufferView": 4,
      "componentType": 5126,
      "count": 100,
      "max": [
        0.984449028968811,
        2.8200571478009806e-07,
        0.144347682595253,
        2.1359868185300002e-07
      ],
      "min": [
        -0.9999046325683594,
        -2.8212937763782975e-07,
        -0.9999979138374329,
        8.74832508657164e-08
      ],
      "type": "VEC4"
    },
    {
      "bufferView": 3,
      "byteOffset": 400,
      "componentType": 5126,
      "count": 100,
      "max": [
        4.166666507720947
      ],
      "min": [
        0.0416666679084301
      ],
      "type": "SCALAR"
    },
    {
      "bufferView": 4,
      "byteOffset": 1600,
      "componentType": 5126,
      "count": 100,
      "max": [
        0.984449028968811,
        2.8200571478009806e-07,
        0.144347682595253,
        2.1359868185300002e-07
      ],
      "min": [
        -0.9999046325683594,
        -2.8212937763782975e-07,
        -0.9999979138374329,
        8.74832508657164e-08
      ],
      "type": "VEC4"
    },
    {
      "bufferView": 3,
      "byteOffset": 800,
      "componentType": 5126,
      "count": 100,
      "max": [
        4.166666507720947
      ],
      "min": [
        0.0416666679084301
      ],
      "type": "SCALAR"
    },
    {
      "bufferView": 4,
      "byteOffset": 3200,
      "componentType": 5126,
      "count": 100,
      "max": [
        0.984449028968811,
        2.8200571478009806e-07,
        0.144347682595253,
        2.1359868185300002e-07
      ],
      "min": [
        -0.9999046325683594,
        -2.8212937763782975e-07,
        -0.9999979138374329,
        8.74832508657164e-08
      ],
      "type": "VEC4"
    },
    {
      "bufferView": 3,
      "byteOffset": 1200,
      "componentType": 5126,
      "count": 100,
      "max": [
        4.166666507720947
      ],
      "min": [
        0.0416666679084301
      ],
      "type": "SCALAR"
    },
    {
      "bufferView": 4,
      "byteOffset": 4800,
      "componentType": 5126,
      "count": 100,
      "max": [
        0.984449028968811,
        2.8200571478009806e-07,
        0.144347682595253,
        2.1359868185300002e-07
      ],
      "min": [
        -0.9999046325683594,
        -2.8212937763782975e-07,
        -0.9999979138374329,
        8.74832508657164e-08
      ],
      "type": "VEC4"
    },
    {
      "bufferView": 3,
      "byteOffset": 1600,
      "componentType": 5126,
      "count": 100,
      "max": [
        4.166666507720947
      ],
      "min": [
        0.0416666679084301
      ],
      "type": "SCALAR"
    },
    {
      "bufferView": 4,
      "byteOffset": 6400,
      "componentType": 5126,
      "count": 100,
      "max": [
        0.0,
        0.9998741745948792,
        -0.0,
        1.0
      ],
      "min": [
        0.0,
        -0.9998741149902344,
        -0.0,
        0.015865927562117577
      ],
      "type": "VEC4"
    },
    {
      "bufferView": 3,
      "byteOffset": 2000,
      "componentType": 5126,
      "count": 100,
      "max": [
        4.166666507720947
      ],
      "min": [
        0.0416666679084301
      ],
      "type": "SCALAR"
    },
    {
      "bufferView": 4,
      "byteOffset": 8000,
      "componentType": 5126,
      "count": 100,
      "max": [
        0.0,
        0.9998741745948792,
        -0.0,
        1.0
      ],
      "min": [
        0.0,
        -0.9998741149902344,
        -0.0,
        0.015865927562117577
      ],
      "type": "VEC4"
    },
    {
      "bufferView": 3,
      "byteOffset": 2400,
      "componentType": 5126,
      "count": 100,
      "max": [
        4.166666507720947
      ],
      "min": [
        0.0416666679084301
      ],
      "type": "SCALAR"
    },
    {
      "bufferView": 4,
      "byteOffset": 9600,
      "componentType": 5126,
      "count": 100,
      "max": [
        0.0,
        0.9998741745948792,
        -0.0,
        1.0
      ],
      "min": [
        0.0,
        -0.9998741149902344,
        -0.0,
        0.015865927562117577
      ],
      "type": "VEC4"
    },
    {
      "bufferView": 3,
      "byteOffset": 2800,
      "componentType": 5126,
      "count": 100,
      "max": [
        4.166666507720947
      ],
      "min": [
        0.0416666679084301
      ],
      "type": "SCALAR"
    },
    {
      "bufferView": 4,
      "byteOffset": 11200,
      "componentType": 5126,
      "count": 100,
      "max": [
        0.0,
        0.9998741745948792,
        -0.0,
        1.0
      ],
      "min": [
        0.0,
        -0.9998741149902344,
        -0.0,
        0.015865927562117577
      ],
      "type": "VEC4"
    }
  ],
  "animations": [
    {
      "channels": [
        {
          "sampler": 0,
          "target": {
            "node": 11,
            "path": "rotation"
          }
        },
        {
          "sampler": 1,
          "target": {
            "node": 13,
            "path": "rotation"
          }
        },
        {
          "sampler": 2,
          "target": {
            "node": 15,
            "path": "rotation"
          }
        },
        {
          "sampler": 3,
          "target": {
            "node": 17,
            "path": "rotation"
          }
        },
        {
          "sampler": 4,
          "target": {
            "node": 3,
            "path": "rotation"
          }
        },
        {
          "sampler": 5,
          "target": {
            "node": 5,
            "path": "rotation"
          }
        },
        {
          "sampler": 6,
          "target": {
            "node": 7,
            "path": "rotation"
          }
        },
        {
          "sampler": 7,
          "target": {
            "node": 9,
            "path": "rotation"
          }
        }
      ],
      "name": "Animation",
      "samplers": [
        {
          "input": 32,
          "interpolation": "LINEAR",
          "output": 33
        },
        {
          "input": 34,
          "interpolation": "LINEAR",
          "output": 35
        },
        {
          "input": 36,
          "interpolation": "LINEAR",
          "output": 37
        },
        {
          "input": 38,
          "interpolation": "LINEAR",
          "output": 39
        },
        {
          "input": 40,
          "interpolation": "LINEAR",
          "output": 41
        },
        {
          "input": 42,
          "interpolation": "LINEAR",
          "output": 43
        },
        {
          "input": 44,
          "interpolation": "LINEAR",
          "output": 45
        },
        {
          "input": 46,
          "interpolation": "LINEAR",
          "output": 47
        }
      ]
    }
  ],
  "asset": {
    "extras": {
      "author": "tamminen (https://sketchfab.com/tamminen)",
      "license": "CC-BY-4.0 (http://creativecommons.org/licenses/by/4.0/)",
      "source": "https://sketchfab.com/3d-models/loading-22593732efaa4bc194cb0d9d059bf439",
      "title": "Loading"
    },
    "generator": "Sketchfab-15.4.0",
    "version": "2.0"
  },
  "bufferViews": [
    {
      "buffer": 0,
      "byteLength": 6144,
      "name": "floatBufferViews",
      "target": 34963
    },
    {
      "buffer": 0,
      "byteLength": 4096,
      "byteOffset": 6144,
      "byteStride": 8,
      "name": "floatBufferViews",
      "target": 34962
    },
    {
      "buffer": 0,
      "byteLength": 12288,
      "byteOffset": 10240,
      "byteStride": 12,
      "name": "floatBufferViews",
      "target": 34962
    },
    {
      "buffer": 0,
      "byteLength": 3200,
      "byteOffset": 22528,
      "name": "floatBufferViews"
    },
    {
      "buffer": 0,
      "byteLength": 12800,
      "byteOffset": 25728,
      "byteStride": 16,
      "name": "floatBufferViews"
    }
  ],
  "buffers": [
    {
      "byteLength": 38528,
      "uri": "scene.bin"
    }
  ],
  "extensionsUsed": [
    "KHR_materials_specular"
  ],
  "materials": [
    {
      "doubleSided": true,
      "extensions": {
        "KHR_materials_specular": {
          "specularColorFactor": [
            1.0,
            1.0,
            1.0
          ],
          "specularFactor": 1.0
        }
      },
      "name": "material",
      "pbrMetallicRoughness": {
        "baseColorFactor": [
          0.0,
          0.0,
          0.0,
          1.0
        ],
        "metallicFactor": 0.0,
        "roughnessFactor": 0.0
      }
    }
  ],
  "meshes": [
    {
      "name": "Object_0",
      "primitives": [
        {
          "attributes": {
            "NORMAL": 1,
            "POSITION": 0,
            "TEXCOORD_0": 2
          },
          "indices": 3,
          "material": 0,
          "mode": 4
        }
      ]
    },
    {
      "name": "Object_1",
      "primitives": [
        {
          "attributes": {
            "NORMAL": 5,
            "POSITION": 4,
            "TEXCOORD_0": 6
          },
          "indices": 7,
          "material": 0,
          "mode": 4
        }
      ]
    },
    {
      "name": "Object_2",
      "primitives": [
        {
          "attributes": {
            "NORMAL": 9,
            "POSITION": 8,
            "TEXCOORD_0": 10
          },
          "indices": 11,
          "material": 0,
          "mode": 4
        }
      ]
    },
    {
      "name": "Object_3",
      "primitives": [
        {
          "attributes": {
            "NORMAL": 13,
            "POSITION": 12,
            "TEXCOORD_0": 14
          },
          "indices": 15,
          "material": 0,
          "mode": 4
        }
      ]
    },
    {
      "name": "Object_4",
      "primitives": [
        {
          "attributes": {
            "NORMAL": 17,
            "POSITION": 16,
            "TEXCOORD_0": 18
          },
          "indices": 19,
          "material": 0,
          "mode": 4
        }
      ]
    },
    {
      "name": "Object_5",
      "primitives": [
        {
          "attributes": {
            "NORMAL": 21,
            "POSITION": 20,
            "TEXCOORD_0": 22
          },
          "indices": 23,
          "material": 0,
          "mode": 4
        }
      ]
    },
    {
      "name": "Object_6",
      "primitives": [
        {
          "attributes": {
            "NORMAL": 25,
            "POSITION": 24,
            "TEXCOORD_0": 26
          },
          "indices": 27,
          "material": 0,
          "mode": 4
        }
      ]
    },
    {
      "name": "Object_7",
      "primitives": [
        {
          "attributes": {
            "NORMAL": 29,
            "POSITION": 28,
            "TEXCOORD_0": 30
          },
          "indices": 31,
          "material": 0,
          "mode": 4
        }
      ]
    }
  ],
  "nodes": [
    {
      "children": [
        1
      ],
      "matrix": [
        0.9425078630447388,
        0.0,
        0.0,
        0.0,
        0.0,
        2.0927878608850454e-16,
        -0.9425078630447388,
        0.0,
        0.0,
        0.9425078630447388,
        2.0927878608850454e-16,
        0.0,
        0.0,
        0.0,
        0.0,
        1.0
      ],
      "name": "Sketchfab_model"
    },
    {
      "children": [
        2
      ],
      "name": "root"
    },
    {
      "children": [
        3,
        5,
        7,
        9,
        11,
        13,
        15,
        17
      ],
      "matrix": [
        1.0,
        0.0,
        0.0,
        0.0,
        0.0,
        2.220446049250313e-16,
        1.0,
        0.0,
        0.0,
        -1.0,
        2.220446049250313e-16,
        0.0,
        0.0,
        0.0,
        0.0,
        1.0
      ],
      "name": "GLTF_SceneRootNode"
    },
    {
      "children": [
        4
      ],
      "name": "Circle_0"
    },
    {
      "mesh": 0,
      "name": "Object_4"
    },
    {
      "children": [
        6
      ],
      "name": "Circle.001_1",
      "translation": [
        0.0,
        -0.20000000298023224,
        0.0
      ]
    },
    {
      "mesh": 1,
      "name": "Object_6"
    },
    {
      "children": [
        8
      ],
      "name": "Circle.002_2",
      "translation": [
        0.0,
        -0.4000000059604645,
        0.0
      ]
    },
    {
      "mesh": 2,
      "name": "Object_8"
    },
    {
      "children": [
        10
      ],
      "name": "Circle.003_3",
      "translation": [
        0.0,
        -0.6000000238418579,
        0.0
      ]
    },
    {
      "mesh": 3,
      "name": "Object_10"
    },
    {
      "children": [
        12
      ],
      "name": "Circle.004_5",
      "translation": [
        0.0,
        -1.5868167877197266,
        0.0
      ]
    },
    {
      "mesh": 4,
      "name": "Object_12"
    },
    {
      "children": [
        14
      ],
      "name": "Circle.005_6",
      "translation": [
        0.0,
        -1.3868167400360107,
        0.0
      ]
    },
    {
      "mesh": 5,
      "name": "Object_14"
    },
    {
      "children": [
        16
      ],
      "name": "Circle.006_7",
      "translation": [
        0.0,
        -1.1868168115615845,
        0.0
      ]
    },
    {
      "mesh": 6,
      "name": "Object_16"
    },
    {
      "children": [
        18
      ],
      "name": "Circle.007_8",
      "translation": [
        0.0,
        -0.9868167638778687,
        0.0
      ]
    },
    {
      "mesh": 7,
      "name": "Object_18"
    }
  ],
  "scene": 0,
  "scenes": [
    {
      "name": "Sketchfab_Scene",
      "nodes": [
        0
      ]
    }
  ]
}
